<svg width="63" height="74" viewBox="0 0 63 74" fill="none" xmlns="http://www.w3.org/2000/svg">
<mask id="path-1-outside-1_3_284" maskUnits="userSpaceOnUse" x="-1" y="0" width="64" height="74" fill="black">
<rect fill="white" x="-1" width="64" height="74"/>
<path fill-rule="evenodd" clip-rule="evenodd" d="M10.9197 49.1999L27.0174 67.2932C29.2468 69.799 33.1632 69.799 35.3927 67.2932L51.4904 49.1999C67.067 31.6924 54.6389 4 31.205 4C7.77116 4 -4.65693 31.6924 10.9197 49.1999ZM31.205 42C38.1086 42 43.705 36.4036 43.705 29.5C43.705 22.5964 38.1086 17 31.205 17C24.3015 17 18.705 22.5964 18.705 29.5C18.705 36.4036 24.3015 42 31.205 42Z"/>
</mask>
<path fill-rule="evenodd" clip-rule="evenodd" d="M10.9197 49.1999L27.0174 67.2932C29.2468 69.799 33.1632 69.799 35.3927 67.2932L51.4904 49.1999C67.067 31.6924 54.6389 4 31.205 4C7.77116 4 -4.65693 31.6924 10.9197 49.1999ZM31.205 42C38.1086 42 43.705 36.4036 43.705 29.5C43.705 22.5964 38.1086 17 31.205 17C24.3015 17 18.705 22.5964 18.705 29.5C18.705 36.4036 24.3015 42 31.205 42Z" fill="#FF4F4F"/>
<path d="M27.0174 67.2932L24.0289 69.952H24.0289L27.0174 67.2932ZM10.9197 49.1999L13.9081 46.5411L10.9197 49.1999ZM35.3927 67.2932L32.4043 64.6344V64.6344L35.3927 67.2932ZM51.4904 49.1999L54.4788 51.8588V51.8587L51.4904 49.1999ZM31.205 4L31.205 0H31.205V4ZM30.0058 64.6344L13.9081 46.5411L7.93124 51.8587L24.0289 69.952L30.0058 64.6344ZM32.4043 64.6344C31.7658 65.352 30.6442 65.352 30.0058 64.6344L24.0289 69.952C27.8494 74.2461 34.5606 74.2461 38.3811 69.952L32.4043 64.6344ZM48.5019 46.5411L32.4043 64.6344L38.3811 69.952L54.4788 51.8588L48.5019 46.5411ZM31.205 8C51.1866 8 61.7838 31.6127 48.5019 46.5411L54.4788 51.8587C72.3501 31.772 58.0911 4.05312e-06 31.205 0L31.205 8ZM13.9081 46.5411C0.626225 31.6127 11.2234 8 31.205 8V0C4.3189 -2.38419e-06 -9.94008 31.772 7.93124 51.8587L13.9081 46.5411ZM39.705 29.5C39.705 34.1944 35.8994 38 31.205 38V46C40.3177 46 47.705 38.6127 47.705 29.5H39.705ZM31.205 21C35.8994 21 39.705 24.8056 39.705 29.5H47.705C47.705 20.3873 40.3177 13 31.205 13V21ZM22.705 29.5C22.705 24.8056 26.5106 21 31.205 21V13C22.0923 13 14.705 20.3873 14.705 29.5H22.705ZM31.205 38C26.5106 38 22.705 34.1944 22.705 29.5H14.705C14.705 38.6127 22.0923 46 31.205 46V38Z" fill="white" fill-opacity="0.5" mask="url(#path-1-outside-1_3_284)"/>
</svg>
